<?xml version="1.0" encoding="UTF-8"?>
<svg width="152px" height="50px" viewBox="0 0 152 50" version="1.1" xmlns="http://www.w3.org/2000/svg" xmlns:xlink="http://www.w3.org/1999/xlink">
    <!-- Generator: Sketch 63.1 (92452) - https://sketch.com -->
    <title>Tookan-Logo-white</title>
    <desc>Created with Sketch.</desc>
    <defs>
        <linearGradient x1="-237.598538%" y1="-2482.56705%" x2="50.3258907%" y2="56.3218391%" id="linearGradient-1">
            <stop stop-color="#16449B" offset="6%"></stop>
            <stop stop-color="#3DBC79" offset="64%"></stop>
            <stop stop-color="#A5D15D" offset="100%"></stop>
        </linearGradient>
    </defs>
    <g id="Tookan-Logo-white" stroke="none" stroke-width="1" fill="none" fill-rule="evenodd" transform="translate(0.000000, 0.000000)">
        <g id="TookanFull-Copy" transform="translate(5.000000, 2.815747)" fill-rule="nonzero">
            <path d="M11.9476299,35.7203247 L12.0456818,22.510276 L22.198961,34.4407468 L22.198961,33.1758766 C22.2823052,30.6240747 22.3313312,26.2975325 22.3313312,25.7778571 C22.3085767,24.6703712 22.1354008,23.5711164 21.8165584,22.510276 C20.4487338,17.627289 16.372224,11.5578734 10.8151299,8.72907468 L10.8151299,8.75849026 L10.7857143,8.71191558 L10.6557955,8.64327922 L19.2010227,8.64327922 L19.2574026,8.6825 L20.524724,8.6825 C25.0571753,8.6825 30.3593344,8.98891234 30.3593344,10.4498864 C30.3593344,0 19.1421916,0 19.1421916,0 L10.6508929,0 L10.6508929,0.0367694805 C10.0748377,0.0294155844 2.61063312,-0.0343181818 0,0.0367694805 L0.0465746753,21.5714286 C0,21.5714286 11.5480682,35.4065584 11.5480682,35.4286201 L11.5480682,35.5977597 L11.6436688,35.5977597 L11.6436688,44.1650487 L30.2171591,44.1650487 L23.1966396,35.7203247 L11.9476299,35.7203247 Z M30.2098052,9.98168831 L30.2098052,9.98168831 C30.2683503,10.0321663 30.3073769,10.101547 30.3201136,10.1777922 C30.2857955,10.1116071 30.2465747,10.0454221 30.2098052,9.98168831 L30.1656818,9.93756494 L30.2098052,9.98168831 Z" id="Shape" fill="#FFFFFF"></path>
            <polygon id="Path" fill="url(#linearGradient-1)" points="23.2873377 35.7203247 23.1966396 35.7203247 22.198961 34.5191883 22.198961 34.4407468"></polygon>
            <path d="M40.0858833,18.8964981 C39.9136469,18.6073998 39.7785759,18.2977247 39.6838703,17.9748098 C39.5606282,17.5779837 39.4986329,17.1646814 39.5,16.7491605 C39.5,15.9500371 39.6797848,15.3780674 40.0393086,15.0332514 C40.4156148,14.6779514 40.9194567,14.4896737 41.4365488,14.5111247 L54.8451527,14.5111247 C55.0160872,14.7962427 55.1503362,15.1018033 55.2447144,15.4205566 C55.3687872,15.8172538 55.4316096,16.2305589 55.4310173,16.6462059 C55.4310173,17.4453293 55.249617,18.0213845 54.8917274,18.362115 C54.5145183,18.7175538 54.0098763,18.9058003 53.4920359,18.8842416 L50.0798281,18.8842416 L50.0798281,33.1017741 C49.7301996,33.1851095 49.3757045,33.2465117 49.0184157,33.2856215 C48.5444858,33.3467581 48.0671647,33.37787 47.5893086,33.3787708 C47.1708983,33.3831793 46.7530444,33.3470584 46.3415975,33.2709137 C46.0143172,33.2119934 45.7043984,33.0804872 45.434617,32.8860598 C45.1798161,32.6885989 44.9881416,32.4211065 44.8830748,32.116352 C44.744434,31.700296 44.6813406,31.2627933 44.6967761,30.8245176 L44.6967761,18.8964981 L40.0858833,18.8964981 Z" id="Path" fill="#FFFFFF"></path>
            <path d="M71.2664027,25.7527806 C71.2858563,26.9109819 71.0879674,28.062562 70.6829936,29.1478293 C70.3244436,30.0931011 69.7629859,30.9482573 69.0381722,31.6530566 C68.3118265,32.3405353 67.4467537,32.8645939 66.5010781,33.1900208 C65.4419001,33.5523128 64.3283068,33.7297581 63.2089839,33.7145988 C62.0880874,33.7286959 60.9737957,33.5410432 59.919341,33.1606053 C58.973201,32.813958 58.1092898,32.2747439 57.3822469,31.5770663 C56.6610627,30.8683257 56.1001882,30.0132219 55.7374255,29.0693877 C54.9577008,26.9321133 54.9577008,24.5881557 55.7374255,22.4508812 C56.1008362,21.5080975 56.6616486,20.6539242 57.3822469,19.945654 C58.1086714,19.2471823 58.9727593,18.7078579 59.919341,18.362115 C60.973481,17.9804787 62.0879923,17.792789 63.2089839,17.8081215 C64.3320963,17.792203 65.4483949,17.9850409 66.5010781,18.3768228 C67.4461799,18.7324702 68.309291,19.2761885 69.0381722,19.9750695 C69.7585333,20.6844854 70.3192837,21.5393998 70.6829936,22.4827481 C71.0839192,23.5256636 71.2819374,24.6355641 71.2664027,25.7527806 L71.2664027,25.7527806 Z M60.5052014,25.7527806 C60.5052014,27.0045771 60.7454287,27.9630349 61.2258833,28.628154 C61.681065,29.2854358 62.4393801,29.6659788 63.2383995,29.638089 C64.032034,29.6726917 64.7853404,29.2871925 65.2215001,28.6232514 C65.6823443,27.9466929 65.9127664,26.9931377 65.9127664,25.7625858 C65.9127664,24.5320338 65.6749904,23.5809299 65.1994384,22.9092741 C64.7277542,22.2797182 63.9870597,21.9091437 63.2004044,21.9091437 C62.413749,21.9091437 61.6730545,22.2797182 61.2013703,22.9092741 C60.7372577,23.5760273 60.5052014,24.5238628 60.5052014,25.7527806 Z" id="Shape" fill="#FFFFFF"></path>
            <path d="M89.2883508,25.7527806 C89.3070209,26.9111372 89.1082997,28.0627222 88.7024904,29.1478293 C88.3448717,30.0935759 87.7832886,30.948923 87.057669,31.6530566 C86.3321136,32.3415714 85.4668028,32.8657741 84.5205748,33.1900208 C83.4622446,33.5523198 82.3494547,33.7297692 81.230932,33.7145988 C80.1119238,33.7303729 78.9992307,33.5443705 77.9461917,33.1655079 C76.999483,32.820025 76.1353442,32.2806688 75.4090975,31.5819689 C74.6863767,30.8740029 74.1245556,30.0187307 73.7618248,29.0742903 C72.9821002,26.9370159 72.9821002,24.5930583 73.7618248,22.4557838 C74.1252079,21.5123958 74.6869661,20.6580553 75.4090975,19.9505566 C76.1354031,19.2536976 76.9996724,18.7167651 77.9461917,18.3743715 C79.0002211,17.9923149 80.1148097,17.8046122 81.2358346,17.820378 C82.3581249,17.8047635 83.4735645,17.9975966 84.5254774,18.3890793 C85.4711911,18.7434939 86.3345381,19.2873608 87.0625716,19.987326 C87.7839924,20.6958724 88.3449027,21.5510307 88.707393,22.4950046 C89.1058894,23.5342616 89.3030466,24.6398392 89.2883508,25.7527806 L89.2883508,25.7527806 Z M78.5246982,25.7527806 C78.5246982,27.0045771 78.7657426,27.9630349 79.2478313,28.628154 C79.7043326,29.2827861 80.4628851,29.6597525 81.2603475,29.6282838 C82.0540903,29.6633829 82.8076278,29.2777654 83.2434482,28.6134462 C83.7059265,27.9368877 83.9371657,26.9833325 83.9371657,25.7527806 C83.9371657,24.5222286 83.7010239,23.5743931 83.2287404,22.9092741 C82.7570561,22.2797182 82.0163617,21.9091437 81.2297063,21.9091437 C80.4430509,21.9091437 79.7023565,22.2797182 79.2306722,22.9092741 C78.7600229,23.5760273 78.5246982,24.5238628 78.5246982,25.7527806 Z" id="Shape" fill="#FFFFFF"></path>
            <path d="M106.447442,30.5205566 C106.344487,31.484734 106.062588,32.2201237 105.601744,32.7267254 C105.140899,33.2390468 104.466792,33.4966377 103.586776,33.4966377 C102.967767,33.5033787 102.359665,33.3332802 101.834098,33.0061734 C101.193068,32.5669953 100.631811,32.0214907 100.174568,31.3932189 L97.1300553,27.5789981 L97.1300553,33.175313 C96.9020846,33.2169851 96.5711592,33.273365 96.1299255,33.3444527 C95.6875285,33.4172663 95.2398643,33.4533418 94.7915164,33.4523098 C94.3811349,33.4568531 93.9711097,33.4265112 93.565867,33.3616117 C93.2375904,33.3123458 92.9258107,33.1854489 92.6564352,32.9914656 C92.4032317,32.7957388 92.2068991,32.5359365 92.0877339,32.2389169 C91.9417477,31.840549 91.8743204,31.4176716 91.8891787,30.9936572 L91.8891787,13.2143877 C92.1146982,13.1539224 92.4480748,13.0877373 92.8893086,13.0158325 C93.3308693,12.942919 93.7777276,12.9068424 94.2252664,12.9079754 C94.63564,12.9036788 95.0456444,12.9340191 95.4509157,12.9986734 C95.7784637,13.0478552 96.0894667,13.1747781 96.3578962,13.3688195 C96.6117887,13.5638638 96.8082771,13.8238721 96.9265975,14.1213682 C97.0735386,14.5195397 97.1418029,14.9424458 97.127604,15.366628 L97.127604,23.4853293 L102.415055,18.0728617 C103.482187,18.0728617 104.338508,18.3090035 104.984016,18.7812871 C105.589047,19.1743919 105.954285,19.8467623 105.954731,20.5682838 C105.958388,20.8575142 105.905943,21.144711 105.800299,21.4139819 C105.682409,21.6980222 105.522064,21.9625101 105.324747,22.1983975 C105.072188,22.5033111 104.794193,22.7862269 104.493757,23.0440955 C104.155477,23.343154 103.760818,23.6863358 103.309779,24.073641 L101.525234,25.6130566 L106.447442,30.5205566 Z" id="Path" fill="#FFFFFF"></path>
            <path d="M115.117685,17.820378 C116.137577,17.8103307 117.154929,17.9239185 118.14749,18.1586572 C118.984427,18.3505975 119.777213,18.6999892 120.483578,19.1882027 C121.120451,19.6378267 121.633849,20.2405848 121.976419,20.9408812 C122.340553,21.7256439 122.519205,22.5836787 122.498546,23.4485598 L122.498546,30.3367092 C122.517748,30.8125876 122.358655,31.2785016 122.052409,31.6432514 C121.747018,31.9891555 121.388777,32.2845177 120.990997,32.518365 C119.659125,33.3207568 117.779796,33.7211356 115.35301,33.7195014 C114.363842,33.7307294 113.376714,33.627081 112.411451,33.4106377 C111.61467,33.2376521 110.854592,32.9256549 110.166062,32.4889494 C109.558141,32.097818 109.060294,31.55778 108.719796,30.9201182 C108.371023,30.2379305 108.19669,29.4799627 108.212377,28.7139494 C108.212377,27.3003672 108.633183,26.2136247 109.474796,25.4537221 C110.316408,24.6938195 111.618048,24.2223531 113.379714,24.0393228 L117.407198,23.6078942 L117.407198,23.3946312 C117.437263,22.8470923 117.124743,22.3382719 116.622783,22.1175046 C116.099839,21.8593011 115.346473,21.7310165 114.362685,21.7326507 C113.597787,21.7319268 112.835064,21.8141168 112.08788,21.9777806 C111.404805,22.1254706 110.735613,22.3313127 110.08762,22.5930566 C109.793752,22.3740023 109.561531,22.0826704 109.413513,21.7473585 C109.236986,21.379681 109.148048,20.9761033 109.153675,20.5682838 C109.129905,20.1119555 109.265043,19.6614955 109.536078,19.2936085 C109.858335,18.9291122 110.264783,18.6488899 110.720055,18.477326 C111.400885,18.2310628 112.108543,18.0664914 112.828172,17.9870663 C113.587066,17.8832928 114.351763,17.8276189 115.117685,17.820378 L115.117685,17.820378 Z M115.362815,29.9052806 C115.749244,29.902636 116.13472,29.866549 116.514925,29.7974234 C116.842502,29.7557319 117.160249,29.6570064 117.453773,29.5057189 L117.453773,27.0544202 L115.247604,27.2407189 C114.75426,27.2591916 114.270822,27.3846512 113.830753,27.6084137 C113.48184,27.7819204 113.266285,28.143095 113.279211,28.5325533 C113.270281,28.9217661 113.446791,29.2920734 113.754763,29.5302319 C114.068529,29.777813 114.605364,29.9052806 115.365266,29.9052806 L115.362815,29.9052806 Z" id="Shape" fill="#FFFFFF"></path>
            <path d="M135.169309,23.7549721 C135.169309,23.1200858 134.987912,22.654339 134.630023,22.3552806 C134.208387,22.0364542 133.68695,21.8782849 133.159244,21.9091442 C132.749879,21.9091404 132.342164,21.9610314 131.945851,22.063576 C131.576597,22.1528846 131.226826,22.3090769 130.913854,22.5244202 L130.913854,33.1949234 C130.591866,33.2802873 130.264193,33.3425452 129.933335,33.3812221 C129.480024,33.4429035 129.022996,33.4732083 128.56551,33.4719202 C128.155136,33.4762168 127.745132,33.4458765 127.339861,33.3812221 C127.012439,33.3315812 126.701541,33.204701 126.43288,33.011076 C126.179677,32.8153492 125.983344,32.5555469 125.864179,32.2585273 C125.718193,31.8601594 125.650765,31.437282 125.665624,31.0132676 L125.665624,21.7939332 C125.644844,21.3176925 125.767837,20.8462171 126.018611,20.4408163 C126.284027,20.0653691 126.616429,19.7421078 126.99913,19.4872611 C127.804036,18.9458507 128.692702,18.5408574 129.629374,18.288576 C130.775085,17.9695349 131.96021,17.8143792 133.149438,17.8277319 C135.466733,17.8277319 137.250461,18.3351507 138.500624,19.3499884 C139.750786,20.364826 140.375867,21.7743228 140.375867,23.5784786 L140.375867,33.2022773 C140.053879,33.2876412 139.726206,33.3498991 139.395348,33.388576 C138.942037,33.4502574 138.485009,33.4805622 138.027523,33.4792741 C137.617149,33.4835707 137.207145,33.4532304 136.801874,33.388576 C136.474452,33.3389351 136.163554,33.2120549 135.894893,33.0184299 C135.641001,32.8233857 135.444512,32.5633773 135.326192,32.2658812 C135.180206,31.8675133 135.112778,31.4446359 135.127637,31.0206215 L135.169309,23.7549721 Z" id="Path" fill="#FFFFFF"></path>
        </g>
    </g>
</svg>